<svg height="512" viewBox="0 0 128 128" width="512" xmlns="http://www.w3.org/2000/svg"><g><g fill="#1685fb"><path d="m49.689 71.583h-15.708a1.75 1.75 0 1 1 0-3.5h15.708a1.75 1.75 0 0 1 0 3.5z"/><path d="m26.373 71.583h-8.1a1.75 1.75 0 1 1 0-3.5h8.1a1.75 1.75 0 1 1 0 3.5z"/><path d="m49.689 87.917h-15.708a1.75 1.75 0 1 1 0-3.5h15.708a1.75 1.75 0 0 1 0 3.5z"/><path d="m26.373 87.917h-8.1a1.75 1.75 0 1 1 0-3.5h8.1a1.75 1.75 0 1 1 0 3.5z"/><path d="m49.689 104.25h-15.708a1.75 1.75 0 1 1 0-3.5h15.708a1.75 1.75 0 0 1 0 3.5z"/><path d="m26.373 104.25h-8.1a1.75 1.75 0 1 1 0-3.5h8.1a1.75 1.75 0 0 1 0 3.5z"/></g><rect fill="#0b607e" height="60.036" rx="6.296" width="60.036" x="49.69" y="52.063"/><path d="m79.708 15.9a19.586 19.586 0 0 0 -19.585 19.585v16.578h7.386v-16.581a12.2 12.2 0 0 1 24.4 0v16.581h7.386v-16.578a19.586 19.586 0 0 0 -19.587-19.585z" fill="#1685fb"/><path d="m87.072 75.7a7.366 7.366 0 1 0 -11.472 6.11s0 5.211 0 9.083a4.107 4.107 0 0 0 4.108 4.107 4.109 4.109 0 0 0 4.109-4.109v-9.081a7.359 7.359 0 0 0 3.255-6.11z" fill="#7adb29"/><path d="m60.123 63.417h-33.75a1.75 1.75 0 0 1 0-3.5h33.75a1.75 1.75 0 0 1 0 3.5z" fill="#1685fb"/><path d="m60.123 79.75h-33.75a1.75 1.75 0 0 1 0-3.5h33.75a1.75 1.75 0 0 1 0 3.5z" fill="#1685fb"/><path d="m60.123 96.083h-33.75a1.75 1.75 0 0 1 0-3.5h33.75a1.75 1.75 0 0 1 0 3.5z" fill="#1685fb"/></g></svg>