<svg height="512pt" viewBox="-76 0 512 512" width="512pt" xmlns="http://www.w3.org/2000/svg"><path d="m333.382812 108.582031-106.386718-106.386719c-1.339844-1.339843-3.273438-2.195312-5.304688-2.195312h-198.859375c-12.589843 0-22.832031 10.242188-22.832031 22.832031v415.359375c0 12.589844 10.242188 22.832032 22.832031 22.832032h114.054688c4.144531 0 7.503906-3.359376 7.503906-7.5 0-4.144532-3.359375-7.5-7.503906-7.5h-114.054688c-4.316406 0-7.832031-3.515626-7.832031-7.832032v-415.359375c0-4.316406 3.515625-7.832031 7.832031-7.832031h191.359375v83.554688c0 12.589843 10.242188 22.832031 22.832032 22.832031h83.554687v117.113281c0 4.140625 3.359375 7.5 7.5 7.5 4.144531 0 7.503906-3.359375 7.503906-7.5v-124.613281c0-2.046875-.839843-3.945313-2.199219-5.304688zm-96.359374-2.195312c-4.316407 0-7.832032-3.511719-7.832032-7.832031v-72.945313l80.78125 80.777344zm0 0"/><path d="m66.699219 164.304688h202.183593c4.140626 0 7.5-3.359376 7.5-7.5 0-4.144532-3.359374-7.5-7.5-7.5h-202.183593c-4.140625 0-7.5 3.355468-7.5 7.5 0 4.140624 3.359375 7.5 7.5 7.5zm0 0"/><path d="m66.699219 198.371094h202.183593c4.140626 0 7.5-3.355469 7.5-7.5 0-4.140625-3.359374-7.5-7.5-7.5h-202.183593c-4.140625 0-7.5 3.359375-7.5 7.5 0 4.144531 3.359375 7.5 7.5 7.5zm0 0"/><path d="m66.699219 232.441406h202.183593c4.140626 0 7.5-3.359375 7.5-7.5 0-4.144531-3.359374-7.503906-7.5-7.503906h-202.183593c-4.140625 0-7.5 3.359375-7.5 7.503906 0 4.140625 3.359375 7.5 7.5 7.5zm0 0"/><path d="m66.699219 266.507812h202.183593c4.140626 0 7.5-3.355468 7.5-7.5 0-4.140624-3.359374-7.5-7.5-7.5h-202.183593c-4.140625 0-7.5 3.359376-7.5 7.5 0 4.144532 3.359375 7.5 7.5 7.5zm0 0"/><path d="m66.699219 300.578125h202.183593c4.140626 0 7.5-3.359375 7.5-7.5 0-4.144531-3.359374-7.5-7.5-7.5h-202.183593c-4.140625 0-7.5 3.355469-7.5 7.5 0 4.140625 3.359375 7.5 7.5 7.5zm0 0"/><path d="m335.582031 325.660156v-52.160156c0-4.140625-3.359375-7.5-7.503906-7.5-4.140625 0-7.5 3.359375-7.5 7.5v37.714844c-9.503906-6.390625-20.933594-10.125-33.222656-10.125-16.976563 0-32.308594 7.136718-43.1875 18.554687h-177.46875c-4.140625 0-7.5 3.359375-7.5 7.5s3.359375 7.5 7.5 7.5h167.007812c-2.878906 5.882813-4.804687 12.304688-5.609375 19.066407h-161.398437c-4.144531 0-7.5 3.359374-7.5 7.5 0 4.144531 3.355469 7.503906 7.5 7.503906h160.964843v16.585937c-7.289062 2.539063-12.542968 9.460938-12.542968 17.605469v43.117188h-43.230469c-4.144531 0-7.5 3.355468-7.5 7.5 0 4.140624 3.355469 7.5 7.5 7.5h43.230469v32.324218c0 10.285156 8.367187 18.652344 18.648437 18.652344h107.171875c10.285156 0 18.648438-8.367188 18.648438-18.652344v-90.441406c0-8.144531-5.253906-15.066406-12.542969-17.605469.003906-24.515625 2.28125-40.816406-11.464844-59.640625zm-48.226562-9.570312c12.835937 0 25.195312 5.234375 34.96875 16.910156 11.730469 14.734375 9.722656 27.539062 9.722656 51.253906h-8.226563v-23.472656c0-20.105469-16.359374-36.460938-36.464843-36.460938-20.101563 0-36.457031 16.355469-36.457031 36.460938v23.472656h-8.230469v-23.472656c0-24.640625 20.046875-44.691406 44.6875-44.691406zm-21.457031 68.164062v-23.472656c0-11.832031 9.625-21.460938 21.457031-21.460938 11.835937 0 21.460937 9.628907 21.460937 21.460938v23.472656zm78.695312 109.09375c0 1.980469-1.671875 3.652344-3.652344 3.652344h-107.167968c-1.980469 0-3.652344-1.671875-3.652344-3.652344v-90.441406c0-1.980469 1.671875-3.652344 3.652344-3.652344h107.167968c1.980469 0 3.648438 1.671875 3.648438 3.652344v90.441406zm0 0"/><path d="m287.355469 409.722656c-12.652344 0-22.949219 10.296875-22.949219 22.953125s10.296875 22.953125 22.949219 22.953125c12.65625 0 22.953125-10.296875 22.953125-22.953125s-10.296875-22.953125-22.953125-22.953125zm0 30.902344c-4.382813 0-7.949219-3.566406-7.949219-7.949219 0-4.386719 3.566406-7.953125 7.949219-7.953125 4.386719 0 7.953125 3.566406 7.953125 7.953125 0 4.382813-3.566406 7.949219-7.953125 7.949219zm0 0"/></svg>